PathFileType	4	(X/Y/Z)	6_coords_data.trc
DataRate	CameraRate	NumFrames	NumMarkers	Units	OrigDataRate	OrigDataStartFrame	OrigNumFrames
30.0	30.0	4	21	m	30.0	1	75
Frame#	Time	THUMB_TIP	THUMB_IP	THUMB_MCP	THUMB_CMC	INDEX_TIP	INDEX_DIP	INDEX_PIP	INDEX_MCP	MIDDLE_TIP	MIDDLE_DIP	MIDDLE_PIP	MIDDLE_MCP	RING_TIP	RING_DIP	RING_PIP	RING_MCP	PINKY_TIP	PINKY_DIP	PINKY_PIP	PINKY_MCP	WRIST
X1	Y1	Z1	X2	Y2	Z2	X3	Y3	Z3	X4	Y4	Z4	X5	Y5	Z5	X6	Y6	Z6	X7	Y7	Z7	X8	Y8	Z8	X9	Y9	Z9	X10	Y10	Z10	X11	Y11	Z11	X12	Y12	Z12	X13	Y13	Z13	X14	Y14	Z14	X15	Y15	Z15	X16	Y16	Z16	X17	Y17	Z17	X18	Y18	Z18	X19	Y19	Z19	X20	Y20	Z20	X21	Y21	Z21
0	-2.749317978547796e-18	0.4708395551122514	-0.025296714356497163	-0.1735188470682249	0.47924491796945257	-0.02812961209398568	-0.15232156975136846	0.47577591367501315	-0.030912230380721106	-0.12151502751314441	0.47557410210548046	-0.026510308809206573	-0.07712502460067955	0.5029425875831326	-0.013561655139543216	-0.09855484301607065	0.5206698596709285	-0.01719500033749355	-0.09929147521587173	0.537347685047857	-0.003065502329974046	-0.11170989942155019	0.49976854383590735	0.01629380103259892	-0.11687338788267954	0.5028398733105572	-0.019373720734883415	-0.0839112882054261	0.5200353168235405	-0.013688990452264016	-0.08393503700908522	0.5398700750593101	0.005368153373572548	-0.09356920458754997	0.5031961571194854	0.030514191683375436	-0.097910681440526	0.5072559151213332	-0.00241102022992401	-0.08202257516894418	0.521087180338221	-0.0035161983546686537	-0.07051281045316066	0.5397659437767826	0.01240964026176583	-0.07471417210975928	0.508367239241726	0.03783918445191259	-0.07619081350210538	0.508776459431818	-0.001459319201137066	-0.05469483331974956	0.525817465621664	-0.0026077001788903376	-0.05582855690491667	0.5398728568605933	0.012895881804544262	-0.0575305973872659	0.5102890103207386	0.033113484755222466	-0.05341623159955866	0.4622830810018609	-0.023011742144276925	-0.051989820119430985
1	0.03333333333333339	0.47102707891497253	-0.025254353681309127	-0.17322523305029902	0.47952583393329806	-0.02775446822011729	-0.15202333241777727	0.47580154855585444	-0.030802228648625807	-0.12127173319435847	0.4760199100503567	-0.0267633843937779	-0.0768473023556544	0.503225510473911	-0.014160115689512587	-0.09843194472681105	0.521079158642988	-0.017063650490675153	-0.09933567738265903	0.5376998862163902	-0.0027903932926668373	-0.1116659400274797	0.499975846796608	0.016307748342552553	-0.11674471251065088	0.5024062083671585	-0.01868389114465785	-0.08376048686126081	0.5198222233153158	-0.01371806496373651	-0.08360885023492964	0.539875410497779	0.0051113603523614826	-0.09323859457684125	0.503397687146223	0.030515285399741243	-0.09772905249051389	0.5042923651571705	-0.0036066966863403938	-0.07639702359628125	0.5211788708203623	-0.0033647118053333758	-0.0700893005677744	0.5401542538657426	0.012092414860576661	-0.07469278321845413	0.5088029730435981	0.037590682052037194	-0.07597979333648852	0.508586930987766	-0.0025435694425606226	-0.05461852675719531	0.5256473191103865	-0.0036110376769371566	-0.05551500245354374	0.5397268610650697	0.011863840012775628	-0.05727757949717838	0.510626435946604	0.03282266166389691	-0.05343355765527208	0.4622830810018609	-0.023011742144276925	-0.051989820119430985
2	0.06666666666666676	0.47117986505687115	-0.02525541882781457	-0.1729876927844366	0.4797417383625071	-0.02749840458858943	-0.15178242597698516	0.4758160791280267	-0.030737198795298237	-0.1210754330981419	0.4763508680073547	-0.026961819347244953	-0.07663051763104078	0.5034530546033782	-0.014585738369409462	-0.09834960472944226	0.5213779492955227	-0.016961789350174117	-0.09937553455761716	0.5379605288855127	-0.0025860716658954175	-0.11163794167056051	0.5001285770043757	0.016314894292664417	-0.11665122369900299	0.502074477065094	-0.01807597786139714	-0.08366710377274666	0.5196570146644578	-0.01374434953988446	-0.08336483294843866	0.5398747502807709	0.004911122456838446	-0.09298907739298351	0.5035499244265643	0.030512740915937253	-0.09759473477671182	0.503535496009334	-0.004235125947193885	-0.07290283592797958	0.5212627301929924	-0.0032583401018860814	-0.06977376935627772	0.5404478728343869	0.011843382845382888	-0.07467767033950395	0.5091355001469076	0.03739617088493696	-0.07582273544072149	0.508413130150037	-0.003391720635225526	-0.05455937136224259	0.525486911280449	-0.004381017473558013	-0.055271614071191244	0.5395870111877321	0.01107032309871303	-0.05707585244910257	0.5108798527830196	0.032601902033487895	-0.053446304832345526	0.4622830810018609	-0.023011742144276925	-0.051989820119430985
3	0.10000000000000014	0.4713043872518854	-0.025290178645186123	-0.17281026725238036	0.47990372604672604	-0.027343472991941176	-0.1516009449007083	0.4758232224781256	-0.030710698663116154	-0.12092797174996822	0.47658326287758734	-0.027112198762846762	-0.07647166581865017	0.5036165621605404	-0.014875829235587501	-0.09829812366224966	0.5215808625935758	-0.01688701391156644	-0.09941124816146113	0.5381416299156832	-0.002443842534335494	-0.11162376711829258	0.5002334814216578	0.016316723591164095	-0.11658859646135028	0.5018371048802559	-0.017591955797007452	-0.08361191440975402	0.5195350530731275	-0.013770129571359258	-0.08319206436107529	0.539870123950166	0.004760416029389147	-0.09281044895332419	0.5036593204220082	0.030507642024499848	-0.09750150239597971	0.503407558989726	-0.004561436011820352	-0.07089515897352311	0.5213328628691297	-0.0031924393419319186	-0.06955004598612252	0.5406595062488481	0.011655609468168904	-0.07466827626680078	0.5093780749446175	0.037250558689123636	-0.0757130077803767	0.5082701795742344	-0.004024727918024107	-0.05451333739688291	0.5253529620301141	-0.004941065180319892	-0.055095462458035316	0.539470276201393	0.010491626054404457	-0.056924533490846085	0.5110620268481918	0.03244195691877627	-0.053454980979217026	0.4622830810018609	-0.023011742144276925	-0.051989820119430985
